<svg width="64" height="64" viewBox="0 0 64 64" fill="none" xmlns="http://www.w3.org/2000/svg" role="img" aria-label="AI Personal Assistant favicon">
  <defs>
    <linearGradient id="aipaFavBg" x1="0" y1="0" x2="64" y2="64" gradientUnits="userSpaceOnUse">
      <stop stop-color="#818cf8"/>
      <stop offset="1" stop-color="#6366f1"/>
    </linearGradient>
  </defs>
  <rect width="64" height="64" rx="16" fill="url(#aipaFavBg)"/>
  <path d="M32 13c1.4 7.2 5.8 11.6 13 13-7.2 1.4-11.6 5.8-13 13-1.4-7.2-5.8-11.6-13-13 7.2-1.4 11.6-5.8 13-13Z" fill="#ffffff"/>
  <path d="M45 37c.7 3.6 2.9 5.8 6.5 6.5-3.6.7-5.8 2.9-6.5 6.5-.7-3.6-2.9-5.8-6.5-6.5 3.6-.7 5.8-2.9 6.5-6.5Z" fill="#ffffff" fill-opacity="0.85"/>
</svg>
