<svg width="32" height="32" viewBox="0 0 32 32" fill="none" xmlns="http://www.w3.org/2000/svg" role="img" aria-label="AI Personal Assistant logo">
  <defs>
    <linearGradient id="aipaLogoBg" x1="0" y1="0" x2="32" y2="32" gradientUnits="userSpaceOnUse">
      <stop stop-color="#818cf8"/>
      <stop offset="1" stop-color="#6366f1"/>
    </linearGradient>
  </defs>
  <rect width="32" height="32" rx="8" fill="url(#aipaLogoBg)"/>
  <!-- AI spark: a four-point sparkle -->
  <path d="M16 6.5c.7 3.6 2.9 5.8 6.5 6.5-3.6.7-5.8 2.9-6.5 6.5-.7-3.6-2.9-5.8-6.5-6.5 3.6-.7 5.8-2.9 6.5-6.5Z" fill="#ffffff"/>
  <!-- small accent spark -->
  <path d="M22.5 18.5c.35 1.8 1.45 2.9 3.25 3.25-1.8.35-2.9 1.45-3.25 3.25-.35-1.8-1.45-2.9-3.25-3.25 1.8-.35 2.9-1.45 3.25-3.25Z" fill="#ffffff" fill-opacity="0.85"/>
</svg>
